ISO-10303-21;
HEADER;
/* Generated by software containing ST-Developer
 * from STEP Tools, Inc. (www.steptools.com) 
 */
/* OPTION: using custom renumber hook */

FILE_DESCRIPTION(
/* description */ ('STEP AP242 Edition 2',
'CAx-IF Rec.Pracs.---Representation and Presentation of Product Manufa
cturing Information (PMI)---4.0---2014-10-13',
'CAx-IF Rec.Pracs.---3D Tessellated Geometry---0.4---2014-09-14','2;1',
'CAx-IF Rec.Pracs.---User Defined Attributes---1.5---2016-08-15'),
/* implementation_level */ '2;1');

FILE_NAME(
/* name */ 'Assembly 1 - Part 1',
/* time_stamp */ '2026-08-21T14:50:51Z',
/* author */ (''),
/* organization */ (''),
/* preprocessor_version */ 'ST-DEVELOPER v20',
/* originating_system */ 'ONSHAPE BY PTC INC, 1.219',
/* authorisation */ '  ');

FILE_SCHEMA (('AP242_MANAGED_MODEL_BASED_3D_ENGINEERING_MIM_LF { 1 0 10303 442 3 1 4 }'));
ENDSEC;

DATA;
#10=SHAPE_REPRESENTATION_RELATIONSHIP('','',#625,#11);
#11=ADVANCED_BREP_SHAPE_REPRESENTATION('',(#623),#1013);
#12=CIRCLE('',#655,0.00318001138979518);
#13=CIRCLE('',#656,0.00318001138979518);
#14=CIRCLE('',#658,0.00133247348027679);
#15=CIRCLE('',#660,0.00133247348027679);
#16=CYLINDRICAL_SURFACE('',#654,0.00318001138979518);
#17=CYLINDRICAL_SURFACE('',#659,0.00133247348027679);
#18=CYLINDRICAL_SURFACE('',#663,0.00144853);
#19=CYLINDRICAL_SURFACE('',#665,0.00144853);
#20=CYLINDRICAL_SURFACE('',#667,0.00144853);
#21=CYLINDRICAL_SURFACE('',#668,0.00144853);
#22=CYLINDRICAL_SURFACE('',#670,0.00144853);
#23=CYLINDRICAL_SURFACE('',#672,0.00144853);
#24=ELLIPSE('',#640,0.00289706,0.00144853);
#25=ELLIPSE('',#641,0.00289706,0.00144853);
#26=ELLIPSE('',#648,0.00289706,0.00144853);
#27=ELLIPSE('',#649,0.00289706,0.00144853);
#28=ELLIPSE('',#664,0.0016726183708585,0.00144853);
#29=ELLIPSE('',#666,0.0016726183708585,0.00144853);
#30=ELLIPSE('',#669,0.0016726183708585,0.00144853);
#31=ELLIPSE('',#671,0.0016726183708585,0.00144853);
#32=ORIENTED_EDGE('',*,*,#200,.T.);
#33=ORIENTED_EDGE('',*,*,#201,.T.);
#34=ORIENTED_EDGE('',*,*,#202,.F.);
#35=ORIENTED_EDGE('',*,*,#203,.F.);
#36=ORIENTED_EDGE('',*,*,#202,.T.);
#37=ORIENTED_EDGE('',*,*,#204,.T.);
#38=ORIENTED_EDGE('',*,*,#205,.F.);
#39=ORIENTED_EDGE('',*,*,#206,.F.);
#40=ORIENTED_EDGE('',*,*,#207,.T.);
#41=ORIENTED_EDGE('',*,*,#208,.T.);
#42=ORIENTED_EDGE('',*,*,#200,.F.);
#43=ORIENTED_EDGE('',*,*,#209,.F.);
#44=ORIENTED_EDGE('',*,*,#210,.T.);
#45=ORIENTED_EDGE('',*,*,#211,.T.);
#46=ORIENTED_EDGE('',*,*,#212,.F.);
#47=ORIENTED_EDGE('',*,*,#213,.F.);
#48=ORIENTED_EDGE('',*,*,#214,.T.);
#49=ORIENTED_EDGE('',*,*,#215,.T.);
#50=ORIENTED_EDGE('',*,*,#216,.F.);
#51=ORIENTED_EDGE('',*,*,#217,.T.);
#52=ORIENTED_EDGE('',*,*,#218,.F.);
#53=ORIENTED_EDGE('',*,*,#219,.T.);
#54=ORIENTED_EDGE('',*,*,#220,.T.);
#55=ORIENTED_EDGE('',*,*,#221,.T.);
#56=ORIENTED_EDGE('',*,*,#222,.F.);
#57=ORIENTED_EDGE('',*,*,#223,.T.);
#58=ORIENTED_EDGE('',*,*,#218,.T.);
#59=ORIENTED_EDGE('',*,*,#224,.T.);
#60=ORIENTED_EDGE('',*,*,#225,.T.);
#61=ORIENTED_EDGE('',*,*,#226,.T.);
#62=ORIENTED_EDGE('',*,*,#227,.T.);
#63=ORIENTED_EDGE('',*,*,#222,.T.);
#64=ORIENTED_EDGE('',*,*,#228,.T.);
#65=ORIENTED_EDGE('',*,*,#229,.F.);
#66=ORIENTED_EDGE('',*,*,#230,.F.);
#67=ORIENTED_EDGE('',*,*,#205,.T.);
#68=ORIENTED_EDGE('',*,*,#231,.T.);
#69=ORIENTED_EDGE('',*,*,#232,.F.);
#70=ORIENTED_EDGE('',*,*,#233,.T.);
#71=ORIENTED_EDGE('',*,*,#234,.F.);
#72=ORIENTED_EDGE('',*,*,#235,.F.);
#73=ORIENTED_EDGE('',*,*,#229,.T.);
#74=ORIENTED_EDGE('',*,*,#236,.F.);
#75=ORIENTED_EDGE('',*,*,#237,.F.);
#76=ORIENTED_EDGE('',*,*,#238,.T.);
#77=ORIENTED_EDGE('',*,*,#239,.T.);
#78=ORIENTED_EDGE('',*,*,#240,.F.);
#79=ORIENTED_EDGE('',*,*,#241,.F.);
#80=ORIENTED_EDGE('',*,*,#207,.F.);
#81=ORIENTED_EDGE('',*,*,#242,.F.);
#82=ORIENTED_EDGE('',*,*,#234,.T.);
#83=ORIENTED_EDGE('',*,*,#243,.T.);
#84=ORIENTED_EDGE('',*,*,#220,.F.);
#85=ORIENTED_EDGE('',*,*,#244,.T.);
#86=ORIENTED_EDGE('',*,*,#236,.T.);
#87=ORIENTED_EDGE('',*,*,#245,.T.);
#88=ORIENTED_EDGE('',*,*,#203,.T.);
#89=ORIENTED_EDGE('',*,*,#206,.T.);
#90=ORIENTED_EDGE('',*,*,#230,.T.);
#91=ORIENTED_EDGE('',*,*,#235,.T.);
#92=ORIENTED_EDGE('',*,*,#242,.T.);
#93=ORIENTED_EDGE('',*,*,#209,.T.);
#94=ORIENTED_EDGE('',*,*,#221,.F.);
#95=ORIENTED_EDGE('',*,*,#245,.F.);
#96=ORIENTED_EDGE('',*,*,#243,.F.);
#97=ORIENTED_EDGE('',*,*,#233,.F.);
#98=ORIENTED_EDGE('',*,*,#228,.F.);
#99=ORIENTED_EDGE('',*,*,#224,.F.);
#100=ORIENTED_EDGE('',*,*,#246,.T.);
#101=ORIENTED_EDGE('',*,*,#231,.F.);
#102=ORIENTED_EDGE('',*,*,#247,.T.);
#103=ORIENTED_EDGE('',*,*,#248,.T.);
#104=ORIENTED_EDGE('',*,*,#215,.F.);
#105=ORIENTED_EDGE('',*,*,#249,.F.);
#106=ORIENTED_EDGE('',*,*,#250,.T.);
#107=ORIENTED_EDGE('',*,*,#227,.F.);
#108=ORIENTED_EDGE('',*,*,#251,.F.);
#109=ORIENTED_EDGE('',*,*,#252,.T.);
#110=ORIENTED_EDGE('',*,*,#225,.F.);
#111=ORIENTED_EDGE('',*,*,#253,.T.);
#112=ORIENTED_EDGE('',*,*,#252,.F.);
#113=ORIENTED_EDGE('',*,*,#254,.F.);
#114=ORIENTED_EDGE('',*,*,#239,.F.);
#115=ORIENTED_EDGE('',*,*,#255,.F.);
#116=ORIENTED_EDGE('',*,*,#256,.T.);
#117=ORIENTED_EDGE('',*,*,#257,.T.);
#118=ORIENTED_EDGE('',*,*,#226,.F.);
#119=ORIENTED_EDGE('',*,*,#254,.T.);
#120=ORIENTED_EDGE('',*,*,#251,.T.);
#121=ORIENTED_EDGE('',*,*,#258,.F.);
#122=ORIENTED_EDGE('',*,*,#259,.T.);
#123=ORIENTED_EDGE('',*,*,#260,.T.);
#124=ORIENTED_EDGE('',*,*,#261,.T.);
#125=ORIENTED_EDGE('',*,*,#249,.T.);
#126=ORIENTED_EDGE('',*,*,#214,.F.);
#127=ORIENTED_EDGE('',*,*,#238,.F.);
#128=ORIENTED_EDGE('',*,*,#262,.F.);
#129=ORIENTED_EDGE('',*,*,#255,.T.);
#130=ORIENTED_EDGE('',*,*,#213,.T.);
#131=ORIENTED_EDGE('',*,*,#263,.F.);
#132=ORIENTED_EDGE('',*,*,#264,.T.);
#133=ORIENTED_EDGE('',*,*,#241,.T.);
#134=ORIENTED_EDGE('',*,*,#265,.F.);
#135=ORIENTED_EDGE('',*,*,#256,.F.);
#136=ORIENTED_EDGE('',*,*,#262,.T.);
#137=ORIENTED_EDGE('',*,*,#237,.T.);
#138=ORIENTED_EDGE('',*,*,#266,.T.);
#139=ORIENTED_EDGE('',*,*,#258,.T.);
#140=ORIENTED_EDGE('',*,*,#253,.F.);
#141=ORIENTED_EDGE('',*,*,#232,.T.);
#142=ORIENTED_EDGE('',*,*,#246,.F.);
#143=ORIENTED_EDGE('',*,*,#265,.T.);
#144=ORIENTED_EDGE('',*,*,#240,.T.);
#145=ORIENTED_EDGE('',*,*,#257,.F.);
#146=ORIENTED_EDGE('',*,*,#211,.F.);
#147=ORIENTED_EDGE('',*,*,#267,.T.);
#148=ORIENTED_EDGE('',*,*,#268,.F.);
#149=ORIENTED_EDGE('',*,*,#269,.F.);
#150=ORIENTED_EDGE('',*,*,#270,.T.);
#151=ORIENTED_EDGE('',*,*,#271,.T.);
#152=ORIENTED_EDGE('',*,*,#217,.F.);
#153=ORIENTED_EDGE('',*,*,#272,.F.);
#154=ORIENTED_EDGE('',*,*,#268,.T.);
#155=ORIENTED_EDGE('',*,*,#273,.T.);
#156=ORIENTED_EDGE('',*,*,#270,.F.);
#157=ORIENTED_EDGE('',*,*,#274,.F.);
#158=ORIENTED_EDGE('',*,*,#210,.F.);
#159=ORIENTED_EDGE('',*,*,#271,.F.);
#160=ORIENTED_EDGE('',*,*,#273,.F.);
#161=ORIENTED_EDGE('',*,*,#267,.F.);
#162=ORIENTED_EDGE('',*,*,#275,.T.);
#163=ORIENTED_EDGE('',*,*,#275,.F.);
#164=ORIENTED_EDGE('',*,*,#276,.T.);
#165=ORIENTED_EDGE('',*,*,#276,.F.);
#166=ORIENTED_EDGE('',*,*,#277,.T.);
#167=ORIENTED_EDGE('',*,*,#278,.T.);
#168=ORIENTED_EDGE('',*,*,#263,.T.);
#169=ORIENTED_EDGE('',*,*,#212,.T.);
#170=ORIENTED_EDGE('',*,*,#269,.T.);
#171=ORIENTED_EDGE('',*,*,#274,.T.);
#172=ORIENTED_EDGE('',*,*,#272,.T.);
#173=ORIENTED_EDGE('',*,*,#216,.T.);
#174=ORIENTED_EDGE('',*,*,#248,.F.);
#175=ORIENTED_EDGE('',*,*,#279,.T.);
#176=ORIENTED_EDGE('',*,*,#250,.F.);
#177=ORIENTED_EDGE('',*,*,#261,.F.);
#178=ORIENTED_EDGE('',*,*,#280,.F.);
#179=ORIENTED_EDGE('',*,*,#223,.F.);
#180=ORIENTED_EDGE('',*,*,#280,.T.);
#181=ORIENTED_EDGE('',*,*,#260,.F.);
#182=ORIENTED_EDGE('',*,*,#281,.F.);
#183=ORIENTED_EDGE('',*,*,#219,.F.);
#184=ORIENTED_EDGE('',*,*,#281,.T.);
#185=ORIENTED_EDGE('',*,*,#259,.F.);
#186=ORIENTED_EDGE('',*,*,#266,.F.);
#187=ORIENTED_EDGE('',*,*,#244,.F.);
#188=ORIENTED_EDGE('',*,*,#247,.F.);
#189=ORIENTED_EDGE('',*,*,#204,.F.);
#190=ORIENTED_EDGE('',*,*,#282,.F.);
#191=ORIENTED_EDGE('',*,*,#279,.F.);
#192=ORIENTED_EDGE('',*,*,#282,.T.);
#193=ORIENTED_EDGE('',*,*,#201,.F.);
#194=ORIENTED_EDGE('',*,*,#283,.F.);
#195=ORIENTED_EDGE('',*,*,#277,.F.);
#196=ORIENTED_EDGE('',*,*,#283,.T.);
#197=ORIENTED_EDGE('',*,*,#208,.F.);
#198=ORIENTED_EDGE('',*,*,#264,.F.);
#199=ORIENTED_EDGE('',*,*,#278,.F.);
#200=EDGE_CURVE('',#284,#285,#338,.T.);
#201=EDGE_CURVE('',#285,#286,#339,.F.);
#202=EDGE_CURVE('',#287,#286,#340,.T.);
#203=EDGE_CURVE('',#284,#287,#341,.T.);
#204=EDGE_CURVE('',#286,#288,#342,.F.);
#205=EDGE_CURVE('',#289,#288,#343,.T.);
#206=EDGE_CURVE('',#287,#289,#344,.T.);
#207=EDGE_CURVE('',#290,#291,#345,.T.);
#208=EDGE_CURVE('',#291,#285,#346,.F.);
#209=EDGE_CURVE('',#290,#284,#347,.T.);
#210=EDGE_CURVE('',#292,#293,#348,.T.);
#211=EDGE_CURVE('',#293,#294,#349,.T.);
#212=EDGE_CURVE('',#295,#294,#350,.T.);
#213=EDGE_CURVE('',#296,#295,#351,.T.);
#214=EDGE_CURVE('',#296,#297,#352,.T.);
#215=EDGE_CURVE('',#297,#298,#353,.T.);
#216=EDGE_CURVE('',#299,#298,#354,.T.);
#217=EDGE_CURVE('',#299,#292,#355,.T.);
#218=EDGE_CURVE('',#300,#301,#356,.T.);
#219=EDGE_CURVE('',#300,#302,#357,.T.);
#220=EDGE_CURVE('',#302,#303,#358,.T.);
#221=EDGE_CURVE('',#303,#301,#359,.T.);
#222=EDGE_CURVE('',#304,#305,#360,.T.);
#223=EDGE_CURVE('',#304,#300,#361,.T.);
#224=EDGE_CURVE('',#301,#305,#362,.T.);
#225=EDGE_CURVE('',#306,#307,#363,.T.);
#226=EDGE_CURVE('',#307,#308,#364,.T.);
#227=EDGE_CURVE('',#308,#304,#365,.T.);
#228=EDGE_CURVE('',#305,#309,#366,.T.);
#229=EDGE_CURVE('',#310,#309,#367,.T.);
#230=EDGE_CURVE('',#289,#310,#368,.T.);
#231=EDGE_CURVE('',#288,#311,#369,.T.);
#232=EDGE_CURVE('',#306,#311,#370,.T.);
#233=EDGE_CURVE('',#309,#312,#371,.T.);
#234=EDGE_CURVE('',#313,#312,#372,.T.);
#235=EDGE_CURVE('',#310,#313,#373,.T.);
#236=EDGE_CURVE('',#314,#315,#374,.T.);
#237=EDGE_CURVE('',#316,#314,#375,.T.);
#238=EDGE_CURVE('',#316,#317,#376,.T.);
#239=EDGE_CURVE('',#317,#318,#377,.T.);
#240=EDGE_CURVE('',#319,#318,#378,.T.);
#241=EDGE_CURVE('',#291,#319,#379,.T.);
#242=EDGE_CURVE('',#313,#290,#380,.T.);
#243=EDGE_CURVE('',#312,#315,#381,.T.);
#244=EDGE_CURVE('',#302,#314,#382,.T.);
#245=EDGE_CURVE('',#315,#303,#383,.T.);
#246=EDGE_CURVE('',#320,#311,#384,.T.);
#247=EDGE_CURVE('',#288,#321,#24,.F.);
#248=EDGE_CURVE('',#321,#298,#385,.T.);
#249=EDGE_CURVE('',#322,#297,#386,.T.);
#250=EDGE_CURVE('',#322,#304,#25,.F.);
#251=EDGE_CURVE('',#323,#308,#387,.T.);
#252=EDGE_CURVE('',#323,#320,#388,.T.);
#253=EDGE_CURVE('',#306,#320,#389,.T.);
#254=EDGE_CURVE('',#307,#323,#390,.T.);
#255=EDGE_CURVE('',#324,#317,#391,.T.);
#256=EDGE_CURVE('',#324,#325,#392,.T.);
#257=EDGE_CURVE('',#325,#318,#393,.T.);
#258=EDGE_CURVE('',#326,#296,#394,.T.);
#259=EDGE_CURVE('',#326,#327,#395,.F.);
#260=EDGE_CURVE('',#327,#328,#396,.F.);
#261=EDGE_CURVE('',#328,#322,#397,.F.);
#262=EDGE_CURVE('',#324,#316,#398,.T.);
#263=EDGE_CURVE('',#329,#295,#399,.T.);
#264=EDGE_CURVE('',#329,#291,#26,.T.);
#265=EDGE_CURVE('',#325,#319,#400,.T.);
#266=EDGE_CURVE('',#314,#326,#27,.T.);
#267=EDGE_CURVE('',#293,#330,#401,.T.);
#268=EDGE_CURVE('',#331,#330,#402,.T.);
#269=EDGE_CURVE('',#294,#331,#403,.T.);
#270=EDGE_CURVE('',#332,#333,#404,.T.);
#271=EDGE_CURVE('',#333,#292,#405,.T.);
#272=EDGE_CURVE('',#332,#299,#406,.T.);
#273=EDGE_CURVE('',#330,#333,#12,.T.);
#274=EDGE_CURVE('',#331,#332,#13,.T.);
#275=EDGE_CURVE('NONE',#334,#334,#14,.F.);
#276=EDGE_CURVE('',#335,#335,#15,.T.);
#277=EDGE_CURVE('',#336,#337,#407,.T.);
#278=EDGE_CURVE('',#337,#329,#408,.T.);
#279=EDGE_CURVE('',#321,#336,#409,.T.);
#280=EDGE_CURVE('',#300,#328,#28,.F.);
#281=EDGE_CURVE('',#302,#327,#29,.F.);
#282=EDGE_CURVE('',#336,#286,#30,.T.);
#283=EDGE_CURVE('',#337,#285,#31,.T.);
#284=VERTEX_POINT('',#842);
#285=VERTEX_POINT('',#843);
#286=VERTEX_POINT('',#845);
#287=VERTEX_POINT('',#847);
#288=VERTEX_POINT('',#851);
#289=VERTEX_POINT('',#853);
#290=VERTEX_POINT('',#857);
#291=VERTEX_POINT('',#858);
#292=VERTEX_POINT('',#863);
#293=VERTEX_POINT('',#864);
#294=VERTEX_POINT('',#866);
#295=VERTEX_POINT('',#868);
#296=VERTEX_POINT('',#870);
#297=VERTEX_POINT('',#872);
#298=VERTEX_POINT('',#874);
#299=VERTEX_POINT('',#876);
#300=VERTEX_POINT('',#880);
#301=VERTEX_POINT('',#881);
#302=VERTEX_POINT('',#883);
#303=VERTEX_POINT('',#885);
#304=VERTEX_POINT('',#889);
#305=VERTEX_POINT('',#890);
#306=VERTEX_POINT('',#895);
#307=VERTEX_POINT('',#896);
#308=VERTEX_POINT('',#898);
#309=VERTEX_POINT('',#901);
#310=VERTEX_POINT('',#903);
#311=VERTEX_POINT('',#906);
#312=VERTEX_POINT('',#910);
#313=VERTEX_POINT('',#912);
#314=VERTEX_POINT('',#916);
#315=VERTEX_POINT('',#917);
#316=VERTEX_POINT('',#919);
#317=VERTEX_POINT('',#921);
#318=VERTEX_POINT('',#923);
#319=VERTEX_POINT('',#925);
#320=VERTEX_POINT('',#936);
#321=VERTEX_POINT('',#938);
#322=VERTEX_POINT('',#941);
#323=VERTEX_POINT('',#944);
#324=VERTEX_POINT('',#951);
#325=VERTEX_POINT('',#953);
#326=VERTEX_POINT('',#958);
#327=VERTEX_POINT('',#960);
#328=VERTEX_POINT('',#962);
#329=VERTEX_POINT('',#968);
#330=VERTEX_POINT('',#976);
#331=VERTEX_POINT('',#978);
#332=VERTEX_POINT('',#982);
#333=VERTEX_POINT('',#983);
#334=VERTEX_POINT('',#991);
#335=VERTEX_POINT('',#994);
#336=VERTEX_POINT('',#998);
#337=VERTEX_POINT('',#999);
#338=LINE('',#841,#410);
#339=LINE('',#844,#411);
#340=LINE('',#846,#412);
#341=LINE('',#848,#413);
#342=LINE('',#850,#414);
#343=LINE('',#852,#415);
#344=LINE('',#854,#416);
#345=LINE('',#856,#417);
#346=LINE('',#859,#418);
#347=LINE('',#860,#419);
#348=LINE('',#862,#420);
#349=LINE('',#865,#421);
#350=LINE('',#867,#422);
#351=LINE('',#869,#423);
#352=LINE('',#871,#424);
#353=LINE('',#873,#425);
#354=LINE('',#875,#426);
#355=LINE('',#877,#427);
#356=LINE('',#879,#428);
#357=LINE('',#882,#429);
#358=LINE('',#884,#430);
#359=LINE('',#886,#431);
#360=LINE('',#888,#432);
#361=LINE('',#891,#433);
#362=LINE('',#892,#434);
#363=LINE('',#894,#435);
#364=LINE('',#897,#436);
#365=LINE('',#899,#437);
#366=LINE('',#900,#438);
#367=LINE('',#902,#439);
#368=LINE('',#904,#440);
#369=LINE('',#905,#441);
#370=LINE('',#907,#442);
#371=LINE('',#909,#443);
#372=LINE('',#911,#444);
#373=LINE('',#913,#445);
#374=LINE('',#915,#446);
#375=LINE('',#918,#447);
#376=LINE('',#920,#448);
#377=LINE('',#922,#449);
#378=LINE('',#924,#450);
#379=LINE('',#926,#451);
#380=LINE('',#927,#452);
#381=LINE('',#928,#453);
#382=LINE('',#930,#454);
#383=LINE('',#931,#455);
#384=LINE('',#935,#456);
#385=LINE('',#939,#457);
#386=LINE('',#940,#458);
#387=LINE('',#943,#459);
#388=LINE('',#945,#460);
#389=LINE('',#947,#461);
#390=LINE('',#948,#462);
#391=LINE('',#950,#463);
#392=LINE('',#952,#464);
#393=LINE('',#954,#465);
#394=LINE('',#957,#466);
#395=LINE('',#959,#467);
#396=LINE('',#961,#468);
#397=LINE('',#963,#469);
#398=LINE('',#965,#470);
#399=LINE('',#967,#471);
#400=LINE('',#970,#472);
#401=LINE('',#975,#473);
#402=LINE('',#977,#474);
#403=LINE('',#979,#475);
#404=LINE('',#981,#476);
#405=LINE('',#984,#477);
#406=LINE('',#985,#478);
#407=LINE('',#997,#479);
#408=LINE('',#1000,#480);
#409=LINE('',#1001,#481);
#410=VECTOR('',#677,1.);
#411=VECTOR('',#678,1.);
#412=VECTOR('',#679,1.);
#413=VECTOR('',#680,1.);
#414=VECTOR('',#683,1.);
#415=VECTOR('',#684,1.);
#416=VECTOR('',#685,1.);
#417=VECTOR('',#688,1.);
#418=VECTOR('',#689,1.);
#419=VECTOR('',#690,1.);
#420=VECTOR('',#693,1.);
#421=VECTOR('',#694,1.);
#422=VECTOR('',#695,1.);
#423=VECTOR('',#696,1.);
#424=VECTOR('',#697,1.);
#425=VECTOR('',#698,1.);
#426=VECTOR('',#699,1.);
#427=VECTOR('',#700,1.);
#428=VECTOR('',#703,1.);
#429=VECTOR('',#704,1.);
#430=VECTOR('',#705,1.);
#431=VECTOR('',#706,1.);
#432=VECTOR('',#709,1.);
#433=VECTOR('',#710,1.);
#434=VECTOR('',#711,1.);
#435=VECTOR('',#714,1.);
#436=VECTOR('',#715,1.);
#437=VECTOR('',#716,1.);
#438=VECTOR('',#717,1.);
#439=VECTOR('',#718,1.);
#440=VECTOR('',#719,1.);
#441=VECTOR('',#720,1.);
#442=VECTOR('',#721,1.);
#443=VECTOR('',#724,1.);
#444=VECTOR('',#725,1.);
#445=VECTOR('',#726,1.);
#446=VECTOR('',#729,1.);
#447=VECTOR('',#730,1.);
#448=VECTOR('',#731,1.);
#449=VECTOR('',#732,1.);
#450=VECTOR('',#733,1.);
#451=VECTOR('',#734,1.);
#452=VECTOR('',#735,1.);
#453=VECTOR('',#736,1.);
#454=VECTOR('',#739,1.);
#455=VECTOR('',#740,1.);
#456=VECTOR('',#747,1.);
#457=VECTOR('',#750,1.);
#458=VECTOR('',#751,1.);
#459=VECTOR('',#754,1.);
#460=VECTOR('',#755,1.);
#461=VECTOR('',#758,1.);
#462=VECTOR('',#759,1.);
#463=VECTOR('',#762,1.);
#464=VECTOR('',#763,1.);
#465=VECTOR('',#764,1.);
#466=VECTOR('',#769,1.);
#467=VECTOR('',#770,1.);
#468=VECTOR('',#771,1.);
#469=VECTOR('',#772,1.);
#470=VECTOR('',#775,1.);
#471=VECTOR('',#778,1.);
#472=VECTOR('',#781,1.);
#473=VECTOR('',#790,1.);
#474=VECTOR('',#791,1.);
#475=VECTOR('',#792,1.);
#476=VECTOR('',#795,1.);
#477=VECTOR('',#796,1.);
#478=VECTOR('',#797,1.);
#479=VECTOR('',#816,1.);
#480=VECTOR('',#817,1.);
#481=VECTOR('',#818,1.);
#482=EDGE_LOOP('',(#32,#33,#34,#35));
#483=EDGE_LOOP('',(#36,#37,#38,#39));
#484=EDGE_LOOP('',(#40,#41,#42,#43));
#485=EDGE_LOOP('',(#44,#45,#46,#47,#48,#49,#50,#51));
#486=EDGE_LOOP('',(#52,#53,#54,#55));
#487=EDGE_LOOP('',(#56,#57,#58,#59));
#488=EDGE_LOOP('',(#60,#61,#62,#63,#64,#65,#66,#67,#68,#69));
#489=EDGE_LOOP('',(#70,#71,#72,#73));
#490=EDGE_LOOP('',(#74,#75,#76,#77,#78,#79,#80,#81,#82,#83));
#491=EDGE_LOOP('',(#84,#85,#86,#87));
#492=EDGE_LOOP('',(#88,#89,#90,#91,#92,#93));
#493=EDGE_LOOP('',(#94,#95,#96,#97,#98,#99));
#494=EDGE_LOOP('',(#100,#101,#102,#103,#104,#105,#106,#107,#108,#109));
#495=EDGE_LOOP('',(#110,#111,#112,#113));
#496=EDGE_LOOP('',(#114,#115,#116,#117));
#497=EDGE_LOOP('',(#118,#119,#120));
#498=EDGE_LOOP('',(#121,#122,#123,#124,#125,#126));
#499=EDGE_LOOP('',(#127,#128,#129));
#500=EDGE_LOOP('',(#130,#131,#132,#133,#134,#135,#136,#137,#138,#139));
#501=EDGE_LOOP('',(#140,#141,#142));
#502=EDGE_LOOP('',(#143,#144,#145));
#503=EDGE_LOOP('',(#146,#147,#148,#149));
#504=EDGE_LOOP('',(#150,#151,#152,#153));
#505=EDGE_LOOP('',(#154,#155,#156,#157));
#506=EDGE_LOOP('',(#158,#159,#160,#161));
#507=EDGE_LOOP('',(#162));
#508=EDGE_LOOP('',(#163));
#509=EDGE_LOOP('',(#164));
#510=EDGE_LOOP('',(#165));
#511=EDGE_LOOP('',(#166,#167,#168,#169,#170,#171,#172,#173,#174,#175));
#512=EDGE_LOOP('',(#176,#177,#178,#179));
#513=EDGE_LOOP('',(#180,#181,#182,#183));
#514=EDGE_LOOP('',(#184,#185,#186,#187));
#515=EDGE_LOOP('',(#188,#189,#190,#191));
#516=EDGE_LOOP('',(#192,#193,#194,#195));
#517=EDGE_LOOP('',(#196,#197,#198,#199));
#518=FACE_BOUND('',#482,.T.);
#519=FACE_BOUND('',#483,.T.);
#520=FACE_BOUND('',#484,.T.);
#521=FACE_BOUND('',#485,.T.);
#522=FACE_BOUND('',#486,.T.);
#523=FACE_BOUND('',#487,.T.);
#524=FACE_BOUND('',#488,.T.);
#525=FACE_BOUND('',#489,.T.);
#526=FACE_BOUND('',#490,.T.);
#527=FACE_BOUND('',#491,.T.);
#528=FACE_BOUND('',#492,.T.);
#529=FACE_BOUND('',#493,.T.);
#530=FACE_BOUND('',#494,.T.);
#531=FACE_BOUND('',#495,.T.);
#532=FACE_BOUND('',#496,.T.);
#533=FACE_BOUND('',#497,.T.);
#534=FACE_BOUND('',#498,.T.);
#535=FACE_BOUND('',#499,.T.);
#536=FACE_BOUND('',#500,.T.);
#537=FACE_BOUND('',#501,.T.);
#538=FACE_BOUND('',#502,.T.);
#539=FACE_BOUND('',#503,.T.);
#540=FACE_BOUND('',#504,.T.);
#541=FACE_BOUND('',#505,.T.);
#542=FACE_BOUND('',#506,.T.);
#543=FACE_BOUND('',#507,.T.);
#544=FACE_BOUND('',#508,.T.);
#545=FACE_BOUND('',#509,.T.);
#546=FACE_BOUND('',#510,.T.);
#547=FACE_BOUND('',#511,.T.);
#548=FACE_BOUND('',#512,.T.);
#549=FACE_BOUND('',#513,.T.);
#550=FACE_BOUND('',#514,.T.);
#551=FACE_BOUND('',#515,.T.);
#552=FACE_BOUND('',#516,.T.);
#553=FACE_BOUND('',#517,.T.);
#554=PLANE('',#627);
#555=PLANE('',#628);
#556=PLANE('',#629);
#557=PLANE('',#630);
#558=PLANE('',#631);
#559=PLANE('',#632);
#560=PLANE('',#633);
#561=PLANE('',#634);
#562=PLANE('',#635);
#563=PLANE('',#636);
#564=PLANE('',#637);
#565=PLANE('',#638);
#566=PLANE('',#639);
#567=PLANE('',#642);
#568=PLANE('',#643);
#569=PLANE('',#644);
#570=PLANE('',#645);
#571=PLANE('',#646);
#572=PLANE('',#647);
#573=PLANE('',#650);
#574=PLANE('',#651);
#575=PLANE('',#652);
#576=PLANE('',#653);
#577=PLANE('',#657);
#578=PLANE('',#661);
#579=PLANE('',#662);
#580=ADVANCED_FACE('',(#518),#554,.F.);
#581=ADVANCED_FACE('',(#519),#555,.F.);
#582=ADVANCED_FACE('',(#520),#556,.F.);
#583=ADVANCED_FACE('',(#521),#557,.F.);
#584=ADVANCED_FACE('',(#522),#558,.F.);
#585=ADVANCED_FACE('',(#523),#559,.F.);
#586=ADVANCED_FACE('',(#524),#560,.F.);
#587=ADVANCED_FACE('',(#525),#561,.F.);
#588=ADVANCED_FACE('',(#526),#562,.F.);
#589=ADVANCED_FACE('',(#527),#563,.F.);
#590=ADVANCED_FACE('',(#528),#564,.T.);
#591=ADVANCED_FACE('',(#529),#565,.F.);
#592=ADVANCED_FACE('',(#530),#566,.T.);
#593=ADVANCED_FACE('',(#531),#567,.T.);
#594=ADVANCED_FACE('',(#532),#568,.T.);
#595=ADVANCED_FACE('',(#533),#569,.T.);
#596=ADVANCED_FACE('',(#534),#570,.T.);
#597=ADVANCED_FACE('',(#535),#571,.T.);
#598=ADVANCED_FACE('',(#536),#572,.F.);
#599=ADVANCED_FACE('',(#537),#573,.F.);
#600=ADVANCED_FACE('',(#538),#574,.F.);
#601=ADVANCED_FACE('',(#539),#575,.F.);
#602=ADVANCED_FACE('',(#540),#576,.F.);
#603=ADVANCED_FACE('',(#541),#16,.F.);
#604=ADVANCED_FACE('',(#542,#543),#577,.F.);
#605=ADVANCED_FACE('',(#544,#545),#17,.T.);
#606=ADVANCED_FACE('',(#546),#578,.F.);
#607=ADVANCED_FACE('',(#547),#579,.F.);
#608=ADVANCED_FACE('',(#548),#18,.F.);
#609=ADVANCED_FACE('',(#549),#19,.F.);
#610=ADVANCED_FACE('',(#550),#20,.F.);
#611=ADVANCED_FACE('',(#551),#21,.F.);
#612=ADVANCED_FACE('',(#552),#22,.F.);
#613=ADVANCED_FACE('',(#553),#23,.F.);
#614=CLOSED_SHELL('',(#580,#581,#582,#583,#584,#585,#586,#587,#588,#589,
#590,#591,#592,#593,#594,#595,#596,#597,#598,#599,#600,#601,#602,#603,#604,
#605,#606,#607,#608,#609,#610,#611,#612,#613));
#615=STYLED_ITEM('',(#616),#623);
#616=PRESENTATION_STYLE_ASSIGNMENT((#617));
#617=SURFACE_STYLE_USAGE(.BOTH.,#618);
#618=SURFACE_SIDE_STYLE('',(#619));
#619=SURFACE_STYLE_FILL_AREA(#620);
#620=FILL_AREA_STYLE('',(#621));
#621=FILL_AREA_STYLE_COLOUR('',#622);
#622=COLOUR_RGB('',0.615686274509804,0.811764705882353,0.929411764705882);
#623=MANIFOLD_SOLID_BREP('Part 1',#614);
#624=SHAPE_DEFINITION_REPRESENTATION(#1018,#625);
#625=SHAPE_REPRESENTATION('Part 1',(#626),#1013);
#626=AXIS2_PLACEMENT_3D('',#839,#673,#674);
#627=AXIS2_PLACEMENT_3D('',#840,#675,#676);
#628=AXIS2_PLACEMENT_3D('',#849,#681,#682);
#629=AXIS2_PLACEMENT_3D('',#855,#686,#687);
#630=AXIS2_PLACEMENT_3D('',#861,#691,#692);
#631=AXIS2_PLACEMENT_3D('',#878,#701,#702);
#632=AXIS2_PLACEMENT_3D('',#887,#707,#708);
#633=AXIS2_PLACEMENT_3D('',#893,#712,#713);
#634=AXIS2_PLACEMENT_3D('',#908,#722,#723);
#635=AXIS2_PLACEMENT_3D('',#914,#727,#728);
#636=AXIS2_PLACEMENT_3D('',#929,#737,#738);
#637=AXIS2_PLACEMENT_3D('',#932,#741,#742);
#638=AXIS2_PLACEMENT_3D('',#933,#743,#744);
#639=AXIS2_PLACEMENT_3D('',#934,#745,#746);
#640=AXIS2_PLACEMENT_3D('',#937,#748,#749);
#641=AXIS2_PLACEMENT_3D('',#942,#752,#753);
#642=AXIS2_PLACEMENT_3D('',#946,#756,#757);
#643=AXIS2_PLACEMENT_3D('',#949,#760,#761);
#644=AXIS2_PLACEMENT_3D('',#955,#765,#766);
#645=AXIS2_PLACEMENT_3D('',#956,#767,#768);
#646=AXIS2_PLACEMENT_3D('',#964,#773,#774);
#647=AXIS2_PLACEMENT_3D('',#966,#776,#777);
#648=AXIS2_PLACEMENT_3D('',#969,#779,#780);
#649=AXIS2_PLACEMENT_3D('',#971,#782,#783);
#650=AXIS2_PLACEMENT_3D('',#972,#784,#785);
#651=AXIS2_PLACEMENT_3D('',#973,#786,#787);
#652=AXIS2_PLACEMENT_3D('',#974,#788,#789);
#653=AXIS2_PLACEMENT_3D('',#980,#793,#794);
#654=AXIS2_PLACEMENT_3D('',#986,#798,#799);
#655=AXIS2_PLACEMENT_3D('',#987,#800,#801);
#656=AXIS2_PLACEMENT_3D('',#988,#802,#803);
#657=AXIS2_PLACEMENT_3D('',#989,#804,#805);
#658=AXIS2_PLACEMENT_3D('',#990,#806,#807);
#659=AXIS2_PLACEMENT_3D('',#992,#808,#809);
#660=AXIS2_PLACEMENT_3D('',#993,#810,#811);
#661=AXIS2_PLACEMENT_3D('',#995,#812,#813);
#662=AXIS2_PLACEMENT_3D('',#996,#814,#815);
#663=AXIS2_PLACEMENT_3D('',#1002,#819,#820);
#664=AXIS2_PLACEMENT_3D('',#1003,#821,#822);
#665=AXIS2_PLACEMENT_3D('',#1004,#823,#824);
#666=AXIS2_PLACEMENT_3D('',#1005,#825,#826);
#667=AXIS2_PLACEMENT_3D('',#1006,#827,#828);
#668=AXIS2_PLACEMENT_3D('',#1007,#829,#830);
#669=AXIS2_PLACEMENT_3D('',#1008,#831,#832);
#670=AXIS2_PLACEMENT_3D('',#1009,#833,#834);
#671=AXIS2_PLACEMENT_3D('',#1010,#835,#836);
#672=AXIS2_PLACEMENT_3D('',#1011,#837,#838);
#673=DIRECTION('',(0.,0.,1.));
#674=DIRECTION('',(1.,0.,0.));
#675=DIRECTION('',(-2.14163392095902E-16,0.,1.));
#676=DIRECTION('',(1.,0.,2.14163392095902E-16));
#677=DIRECTION('',(0.,1.,0.));
#678=DIRECTION('',(-1.,0.,-2.14163392095902E-16));
#679=DIRECTION('',(0.,1.,0.));
#680=DIRECTION('',(1.,0.,2.14163392095902E-16));
#681=DIRECTION('',(-0.866025403784439,0.,0.5));
#682=DIRECTION('',(0.5,0.,0.866025403784439));
#683=DIRECTION('',(-0.5,0.,-0.866025403784439));
#684=DIRECTION('',(0.,1.,0.));
#685=DIRECTION('',(0.5,0.,0.866025403784439));
#686=DIRECTION('',(0.866025403784439,0.,0.5));
#687=DIRECTION('',(0.5,0.,-0.866025403784439));
#688=DIRECTION('',(0.,1.,0.));
#689=DIRECTION('',(-0.5,0.,0.866025403784439));
#690=DIRECTION('',(0.5,0.,-0.866025403784439));
#691=DIRECTION('',(2.14163392095902E-16,0.,1.));
#692=DIRECTION('',(1.,0.,-2.14163392095902E-16));
#693=DIRECTION('',(-1.,-1.41972523136468E-14,2.14163392095902E-16));
#694=DIRECTION('',(1.41972523136468E-14,-1.,-3.04053171393199E-30));
#695=DIRECTION('',(1.,0.,-2.14163392095902E-16));
#696=DIRECTION('',(0.,-1.,0.));
#697=DIRECTION('',(1.,0.,-2.14163392095902E-16));
#698=DIRECTION('',(0.,-1.,0.));
#699=DIRECTION('',(1.,0.,-2.14163392095902E-16));
#700=DIRECTION('',(-1.41972523136468E-14,1.,3.04053171393199E-30));
#701=DIRECTION('',(-2.14163392095902E-16,0.,1.));
#702=DIRECTION('',(1.,0.,2.14163392095902E-16));
#703=DIRECTION('',(0.,1.,0.));
#704=DIRECTION('',(-1.,0.,-2.14163392095902E-16));
#705=DIRECTION('',(0.,1.,0.));
#706=DIRECTION('',(1.,0.,2.14163392095902E-16));
#707=DIRECTION('',(-0.866025403784439,0.,0.5));
#708=DIRECTION('',(0.5,0.,0.866025403784439));
#709=DIRECTION('',(0.,1.,0.));
#710=DIRECTION('',(-0.5,0.,-0.866025403784439));
#711=DIRECTION('',(0.5,0.,0.866025403784439));
#712=DIRECTION('',(-0.866025403784439,0.,-0.5));
#713=DIRECTION('',(-0.5,0.,0.866025403784439));
#714=DIRECTION('',(0.,1.,0.));
#715=DIRECTION('',(0.5,0.,-0.866025403784439));
#716=DIRECTION('',(0.,1.,0.));
#717=DIRECTION('',(-0.5,0.,0.866025403784439));
#718=DIRECTION('',(0.,1.,0.));
#719=DIRECTION('',(-0.5,0.,0.866025403784439));
#720=DIRECTION('',(0.,1.,0.));
#721=DIRECTION('',(0.5,0.,-0.866025403784439));
#722=DIRECTION('',(-2.14163392095902E-16,0.,-1.));
#723=DIRECTION('',(-1.,0.,2.14163392095902E-16));
#724=DIRECTION('',(-1.,0.,2.14163392095902E-16));
#725=DIRECTION('',(0.,1.,0.));
#726=DIRECTION('',(-1.,0.,2.14163392095902E-16));
#727=DIRECTION('',(0.866025403784439,0.,-0.5));
#728=DIRECTION('',(-0.5,0.,-0.866025403784439));
#729=DIRECTION('',(0.,1.,0.));
#730=DIRECTION('',(0.,1.,0.));
#731=DIRECTION('',(0.5,0.,0.866025403784439));
#732=DIRECTION('',(0.,-1.,0.));
#733=DIRECTION('',(0.5,0.,0.866025403784439));
#734=DIRECTION('',(0.,1.,0.));
#735=DIRECTION('',(-0.5,0.,-0.866025403784439));
#736=DIRECTION('',(-0.5,0.,-0.866025403784439));
#737=DIRECTION('',(0.866025403784439,0.,0.5));
#738=DIRECTION('',(0.5,0.,-0.866025403784439));
#739=DIRECTION('',(-0.5,0.,0.866025403784439));
#740=DIRECTION('',(0.5,0.,-0.866025403784439));
#741=DIRECTION('',(0.,-1.,0.));
#742=DIRECTION('',(1.,0.,0.));
#743=DIRECTION('',(0.,-1.,0.));
#744=DIRECTION('',(1.,0.,0.));
#745=DIRECTION('',(1.,0.,-2.14163392095902E-16));
#746=DIRECTION('',(-2.14163392095902E-16,0.,-1.));
#747=DIRECTION('',(-2.14163392095902E-16,0.,-1.));
#748=DIRECTION('',(1.,0.,-2.14163392095902E-16));
#749=DIRECTION('',(2.14163392095902E-16,0.,1.));
#750=DIRECTION('',(-2.14163392095902E-16,0.,-1.));
#751=DIRECTION('',(-2.14163392095902E-16,0.,-1.));
#752=DIRECTION('',(1.,0.,-2.14163392095902E-16));
#753=DIRECTION('',(-2.14163392095902E-16,0.,-1.));
#754=DIRECTION('',(-2.14163392095902E-16,0.,-1.));
#755=DIRECTION('',(0.,-1.,0.));
#756=DIRECTION('',(2.14163392095902E-16,0.,1.));
#757=DIRECTION('',(1.,0.,-2.14163392095902E-16));
#758=DIRECTION('',(1.,0.,-2.14163392095902E-16));
#759=DIRECTION('',(1.,0.,-2.14163392095902E-16));
#760=DIRECTION('',(2.14163392095902E-16,0.,1.));
#761=DIRECTION('',(1.,0.,-2.14163392095902E-16));
#762=DIRECTION('',(1.,0.,-2.14163392095902E-16));
#763=DIRECTION('',(0.,-1.,0.));
#764=DIRECTION('',(1.,0.,-2.14163392095902E-16));
#765=DIRECTION('',(0.,1.,0.));
#766=DIRECTION('',(0.,0.,1.));
#767=DIRECTION('',(0.,1.,0.));
#768=DIRECTION('',(0.,0.,1.));
#769=DIRECTION('',(-2.14163392095902E-16,0.,-1.));
#770=DIRECTION('',(-0.5,0.,0.866025403784439));
#771=DIRECTION('',(-1.,0.,-2.14163392095902E-16));
#772=DIRECTION('',(-0.5,0.,-0.866025403784439));
#773=DIRECTION('',(0.,1.,0.));
#774=DIRECTION('',(0.,0.,1.));
#775=DIRECTION('',(-2.14163392095902E-16,0.,-1.));
#776=DIRECTION('',(1.,0.,-2.14163392095902E-16));
#777=DIRECTION('',(-2.14163392095902E-16,0.,-1.));
#778=DIRECTION('',(-2.14163392095902E-16,0.,-1.));
#779=DIRECTION('',(1.,0.,-2.14163392095902E-16));
#780=DIRECTION('',(-2.14163392095902E-16,0.,-1.));
#781=DIRECTION('',(-2.14163392095902E-16,0.,-1.));
#782=DIRECTION('',(1.,0.,-2.14163392095902E-16));
#783=DIRECTION('',(2.14163392095902E-16,0.,1.));
#784=DIRECTION('',(0.,1.,0.));
#785=DIRECTION('',(0.,0.,1.));
#786=DIRECTION('',(0.,1.,0.));
#787=DIRECTION('',(0.,0.,1.));
#788=DIRECTION('',(-1.,-1.41972523136468E-14,-6.40606659523076E-15));
#789=DIRECTION('',(1.41972523136468E-14,-1.,0.));
#790=DIRECTION('',(-6.40606659523075E-15,1.31810956986585E-29,1.));
#791=DIRECTION('',(-1.41972523136468E-14,1.,-1.04129639489174E-28));
#792=DIRECTION('',(-6.40606659523075E-15,1.31810956986585E-29,1.));
#793=DIRECTION('',(1.,1.41972523136468E-14,8.76619639347363E-15));
#794=DIRECTION('',(-1.41972523136468E-14,1.,0.));
#795=DIRECTION('',(-1.41972523136468E-14,1.,-1.04129639489174E-28));
#796=DIRECTION('',(8.76619639347363E-15,2.03262625399519E-29,-1.));
#797=DIRECTION('',(8.76619639347363E-15,2.03262625399519E-29,-1.));
#798=DIRECTION('',(-1.41972523136468E-14,1.,-1.04129639489174E-28));
#799=DIRECTION('',(-1.,-1.41972523136468E-14,0.));
#800=DIRECTION('',(-1.41972523136468E-14,1.,-1.04129639489174E-28));
#801=DIRECTION('',(1.,1.41972523136468E-14,0.));
#802=DIRECTION('',(-1.41972523136468E-14,1.,-1.04129639489174E-28));
#803=DIRECTION('',(1.,1.41972523136468E-14,0.));
#804=DIRECTION('',(-1.41972523136468E-14,1.,-1.04129639489174E-28));
#805=DIRECTION('',(1.,1.41972523136468E-14,6.87766156394986E-15));
#806=DIRECTION('',(1.41972523136468E-14,-1.,1.04129639489174E-28));
#807=DIRECTION('',(-1.,-1.41972523136468E-14,-6.87766156394986E-15));
#808=DIRECTION('',(1.41972523136468E-14,-1.,1.04129639489174E-28));
#809=DIRECTION('',(-1.,-1.41972523136468E-14,-6.87766156394986E-15));
#810=DIRECTION('',(0.,1.,0.));
#811=DIRECTION('',(0.,0.,1.));
#812=DIRECTION('',(0.,1.,0.));
#813=DIRECTION('',(0.,0.,1.));
#814=DIRECTION('',(0.,1.,0.));
#815=DIRECTION('',(0.,0.,1.));
#816=DIRECTION('',(-1.,0.,-2.14163392095902E-16));
#817=DIRECTION('',(-0.5,0.,0.866025403784439));
#818=DIRECTION('',(-0.5,0.,-0.866025403784439));
#819=DIRECTION('',(-0.5,0.,-0.866025403784439));
#820=DIRECTION('',(-0.866025403784439,0.,0.5));
#821=DIRECTION('',(-0.866025403784438,0.,-0.5));
#822=DIRECTION('',(0.5,0.,-0.866025403784439));
#823=DIRECTION('',(-1.,0.,-2.14163392095902E-16));
#824=DIRECTION('',(-2.14163392095902E-16,0.,1.));
#825=DIRECTION('',(-0.866025403784439,0.,0.5));
#826=DIRECTION('',(-0.5,0.,-0.866025403784439));
#827=DIRECTION('',(-0.5,0.,0.866025403784439));
#828=DIRECTION('',(0.866025403784439,0.,0.5));
#829=DIRECTION('',(0.5,0.,0.866025403784439));
#830=DIRECTION('',(0.866025403784439,0.,-0.5));
#831=DIRECTION('',(0.866025403784438,0.,0.5));
#832=DIRECTION('',(0.5,0.,-0.866025403784439));
#833=DIRECTION('',(1.,0.,2.14163392095902E-16));
#834=DIRECTION('',(2.14163392095902E-16,0.,-1.));
#835=DIRECTION('',(0.866025403784439,0.,-0.5));
#836=DIRECTION('',(0.5,0.,0.866025403784439));
#837=DIRECTION('',(0.5,0.,-0.866025403784439));
#838=DIRECTION('',(-0.866025403784439,0.,-0.5));
#839=CARTESIAN_POINT('',(0.,0.,0.));
#840=CARTESIAN_POINT('',(8.67361737988404E-19,-0.04,-0.00350740288532698));
#841=CARTESIAN_POINT('',(-0.002025,-0.04,-0.00350740288532698));
#842=CARTESIAN_POINT('',(-0.002025,-0.04,-0.00350740288532698));
#843=CARTESIAN_POINT('',(-0.002025,0.00125147,-0.00350740288532698));
#844=CARTESIAN_POINT('',(0.002025,0.00125147,-0.00350740288532698));
#845=CARTESIAN_POINT('',(0.002025,0.00125147,-0.00350740288532698));
#846=CARTESIAN_POINT('',(0.002025,-0.04,-0.00350740288532698));
#847=CARTESIAN_POINT('',(0.002025,-0.04,-0.00350740288532698));
#848=CARTESIAN_POINT('',(8.67361737988404E-19,-0.04,-0.00350740288532698));
#849=CARTESIAN_POINT('',(0.0030375,-0.04,-0.00175370144266349));
#850=CARTESIAN_POINT('',(0.00405,0.00125147,3.25260651745652E-19));
#851=CARTESIAN_POINT('',(0.00405,0.00125147,0.));
#852=CARTESIAN_POINT('',(0.00405,-0.04,0.));
#853=CARTESIAN_POINT('',(0.00405,-0.04,0.));
#854=CARTESIAN_POINT('',(0.0030375,-0.04,-0.00175370144266349));
#855=CARTESIAN_POINT('',(-0.0030375,-0.04,-0.00175370144266348));
#856=CARTESIAN_POINT('',(-0.00405,-0.04,4.95981953654678E-19));
#857=CARTESIAN_POINT('',(-0.00405,-0.04,4.95981953654678E-19));
#858=CARTESIAN_POINT('',(-0.00405,0.00125147,4.95981953654678E-19));
#859=CARTESIAN_POINT('',(-0.002025,0.00125147,-0.00350740288532698));
#860=CARTESIAN_POINT('',(-0.0030375,-0.04,-0.00175370144266348));
#861=CARTESIAN_POINT('',(-5.57737093706533E-18,0.,-0.021992597114673));
#862=CARTESIAN_POINT('',(-2.4145052087599E-16,0.0166139999999998,-0.021992597114673));
#863=CARTESIAN_POINT('',(0.00311817159586907,0.016614,-0.021992597114673));
#864=CARTESIAN_POINT('',(-0.00228182840413094,0.0166139999999998,-0.021992597114673));
#865=CARTESIAN_POINT('',(-0.00228182840413071,-3.23956935898895E-17,-0.021992597114673));
#866=CARTESIAN_POINT('',(-0.00228182840413086,0.00269999999999973,-0.021992597114673));
#867=CARTESIAN_POINT('',(-5.0274856294513E-18,0.0027,-0.021992597114673));
#868=CARTESIAN_POINT('',(-0.00405,0.0027,-0.021992597114673));
#869=CARTESIAN_POINT('',(-0.00405,0.0212,-0.021992597114673));
#870=CARTESIAN_POINT('',(-0.00405,0.0317,-0.021992597114673));
#871=CARTESIAN_POINT('',(-5.89484736743971E-18,0.0317,-0.021992597114673));
#872=CARTESIAN_POINT('',(0.00405,0.0317,-0.0219925971146731));
#873=CARTESIAN_POINT('',(0.00405,0.0212,-0.0219925971146731));
#874=CARTESIAN_POINT('',(0.00405,0.0027,-0.0219925971146731));
#875=CARTESIAN_POINT('',(-5.0274856294513E-18,0.0027,-0.021992597114673));
#876=CARTESIAN_POINT('',(0.00311817159586916,0.00269999999999981,-0.021992597114673));
#877=CARTESIAN_POINT('',(0.00311817159586931,4.42694689038032E-17,-0.021992597114673));
#878=CARTESIAN_POINT('',(8.67361737988404E-19,-0.04,-0.00350740288532698));
#879=CARTESIAN_POINT('',(0.002025,-0.04,-0.00350740288532698));
#880=CARTESIAN_POINT('',(0.002025,0.03314853,-0.00350740288532698));
#881=CARTESIAN_POINT('',(0.002025,0.04,-0.00350740288532698));
#882=CARTESIAN_POINT('',(8.67361737988404E-19,0.03314853,-0.00350740288532698));
#883=CARTESIAN_POINT('',(-0.002025,0.03314853,-0.00350740288532698));
#884=CARTESIAN_POINT('',(-0.002025,-0.04,-0.00350740288532698));
#885=CARTESIAN_POINT('',(-0.002025,0.04,-0.00350740288532698));
#886=CARTESIAN_POINT('',(8.67361737988404E-19,0.04,-0.00350740288532698));
#887=CARTESIAN_POINT('',(0.0030375,-0.04,-0.00175370144266349));
#888=CARTESIAN_POINT('',(0.00405,-0.04,0.));
#889=CARTESIAN_POINT('',(0.00405,0.03314853,0.));
#890=CARTESIAN_POINT('',(0.00405,0.04,0.));
#891=CARTESIAN_POINT('',(0.0030375,0.03314853,-0.00175370144266349));
#892=CARTESIAN_POINT('',(0.0030375,0.04,-0.00175370144266349));
#893=CARTESIAN_POINT('',(0.0030375,-0.04,0.00175370144266349));
#894=CARTESIAN_POINT('',(0.00404572594216369,-0.04,7.40288532697438E-6));
#895=CARTESIAN_POINT('',(0.00404572594216369,0.0107,7.40288532697438E-6));
#896=CARTESIAN_POINT('',(0.00404572594216369,0.0317,7.40288532697438E-6));
#897=CARTESIAN_POINT('',(0.0030375,0.0317,0.00175370144266349));
#898=CARTESIAN_POINT('',(0.00405,0.0317,0.));
#899=CARTESIAN_POINT('',(0.00405,0.0212,-2.16840434497101E-19));
#900=CARTESIAN_POINT('',(0.0030375,0.04,0.00175370144266349));
#901=CARTESIAN_POINT('',(0.002025,0.04,0.00350740288532698));
#902=CARTESIAN_POINT('',(0.002025,-0.04,0.00350740288532698));
#903=CARTESIAN_POINT('',(0.002025,-0.04,0.00350740288532698));
#904=CARTESIAN_POINT('',(0.0030375,-0.04,0.00175370144266349));
#905=CARTESIAN_POINT('',(0.00405,0.0027,0.));
#906=CARTESIAN_POINT('',(0.00405,0.0107,0.));
#907=CARTESIAN_POINT('',(0.0030375,0.0107,0.00175370144266349));
#908=CARTESIAN_POINT('',(4.33680868994202E-19,-0.04,0.00350740288532698));
#909=CARTESIAN_POINT('',(4.33680868994202E-19,0.04,0.00350740288532698));
#910=CARTESIAN_POINT('',(-0.002025,0.04,0.00350740288532698));
#911=CARTESIAN_POINT('',(-0.002025,-0.04,0.00350740288532698));
#912=CARTESIAN_POINT('',(-0.002025,-0.04,0.00350740288532698));
#913=CARTESIAN_POINT('',(4.33680868994202E-19,-0.04,0.00350740288532698));
#914=CARTESIAN_POINT('',(-0.0030375,-0.04,0.00175370144266349));
#915=CARTESIAN_POINT('',(-0.00405,-0.04,4.95981953654678E-19));
#916=CARTESIAN_POINT('',(-0.00405,0.0331485256601644,2.12172166203488E-18));
#917=CARTESIAN_POINT('',(-0.00405,0.04,4.95981953654678E-19));
#918=CARTESIAN_POINT('',(-0.00405,0.0212,2.16840434497101E-18));
#919=CARTESIAN_POINT('',(-0.00405,0.0317,4.95981953654678E-19));
#920=CARTESIAN_POINT('',(-0.0030375,0.0317,0.00175370144266349));
#921=CARTESIAN_POINT('',(-0.00404572594216369,0.0317,7.4028853269759E-6));
#922=CARTESIAN_POINT('',(-0.00404572594216369,-0.04,7.4028853269759E-6));
#923=CARTESIAN_POINT('',(-0.00404572594216369,0.0107,7.4028853269759E-6));
#924=CARTESIAN_POINT('',(-0.0030375,0.0107,0.00175370144266349));
#925=CARTESIAN_POINT('',(-0.00405,0.0107,3.46521178721734E-18));
#926=CARTESIAN_POINT('',(-0.00405,0.0027,3.46521178721734E-18));
#927=CARTESIAN_POINT('',(-0.0030375,-0.04,0.00175370144266349));
#928=CARTESIAN_POINT('',(-0.0030375,0.04,0.00175370144266349));
#929=CARTESIAN_POINT('',(-0.0030375,-0.04,-0.00175370144266348));
#930=CARTESIAN_POINT('',(-0.0030375,0.03314853,-0.00175370144266348));
#931=CARTESIAN_POINT('',(-0.0030375,0.04,-0.00175370144266348));
#932=CARTESIAN_POINT('',(-8.67361737988404E-19,-0.04,0.));
#933=CARTESIAN_POINT('',(-8.67361737988404E-19,0.04,0.));
#934=CARTESIAN_POINT('',(0.00405,0.0212,7.40288532697156E-6));
#935=CARTESIAN_POINT('',(0.00405,0.0107,7.40288532697156E-6));
#936=CARTESIAN_POINT('',(0.00405,0.0107,7.40288532697156E-6));
#937=CARTESIAN_POINT('',(0.00405,0.00125147,-0.00289706));
#938=CARTESIAN_POINT('',(0.00405,0.0027,-0.00289706));
#939=CARTESIAN_POINT('',(0.00405,0.0027,7.40288532697156E-6));
#940=CARTESIAN_POINT('',(0.00405,0.0317,7.40288532697156E-6));
#941=CARTESIAN_POINT('',(0.00405,0.0317,-0.00289706));
#942=CARTESIAN_POINT('',(0.00405,0.03314853,-0.00289706));
#943=CARTESIAN_POINT('',(0.00405,0.0317,7.40288532697156E-6));
#944=CARTESIAN_POINT('',(0.00405,0.0317,7.40288532697156E-6));
#945=CARTESIAN_POINT('',(0.00405,0.0212,7.40288532697156E-6));
#946=CARTESIAN_POINT('',(-8.65776310955481E-19,0.,7.40288532697503E-6));
#947=CARTESIAN_POINT('',(-3.15891003341456E-19,0.0107,7.40288532697503E-6));
#948=CARTESIAN_POINT('',(-1.18325274132986E-18,0.0317,7.40288532697503E-6));
#949=CARTESIAN_POINT('',(-8.65776310955481E-19,0.,7.40288532697503E-6));
#950=CARTESIAN_POINT('',(-1.18325274132986E-18,0.0317,7.40288532697503E-6));
#951=CARTESIAN_POINT('',(-0.00405,0.0317,7.40288532697503E-6));
#952=CARTESIAN_POINT('',(-0.00405,0.0212,7.40288532697503E-6));
#953=CARTESIAN_POINT('',(-0.00405,0.0107,7.40288532697503E-6));
#954=CARTESIAN_POINT('',(-3.15891003341456E-19,0.0107,7.40288532697503E-6));
#955=CARTESIAN_POINT('',(-1.18325274132986E-18,0.0317,7.40288532697503E-6));
#956=CARTESIAN_POINT('',(-1.18325274132986E-18,0.0317,7.40288532697503E-6));
#957=CARTESIAN_POINT('',(-0.00405,0.0317,7.40288532697503E-6));
#958=CARTESIAN_POINT('',(-0.00405,0.0317,-0.00289706));
#959=CARTESIAN_POINT('',(-0.00429516932152111,0.0317,-0.00247241427866825));
#960=CARTESIAN_POINT('',(-0.00286130918542925,0.0317,-0.00495593288532698));
#961=CARTESIAN_POINT('',(-1.20287916575681E-19,0.0317,-0.00495593288532698));
#962=CARTESIAN_POINT('',(0.00286130918542925,0.0317,-0.00495593288532698));
#963=CARTESIAN_POINT('',(0.00429516932152111,0.0317,-0.00247241427866826));
#964=CARTESIAN_POINT('',(-1.18325274132986E-18,0.0317,7.40288532697503E-6));
#965=CARTESIAN_POINT('',(-0.00405,0.0317,7.40288532697503E-6));
#966=CARTESIAN_POINT('',(-0.00405,0.0212,7.40288532697503E-6));
#967=CARTESIAN_POINT('',(-0.00405,0.0027,7.40288532697503E-6));
#968=CARTESIAN_POINT('',(-0.00405,0.0027,-0.00289706));
#969=CARTESIAN_POINT('',(-0.00405,0.00125147,-0.00289706));
#970=CARTESIAN_POINT('',(-0.00405,0.0107,7.40288532697503E-6));
#971=CARTESIAN_POINT('',(-0.00405,0.03314853,-0.00289706));
#972=CARTESIAN_POINT('',(-3.15891003341456E-19,0.0107,7.40288532697503E-6));
#973=CARTESIAN_POINT('',(-3.15891003341456E-19,0.0107,7.40288532697503E-6));
#974=CARTESIAN_POINT('',(-0.00228182840413087,0.0106999999999997,-0.0203270662102687));
#975=CARTESIAN_POINT('',(-0.00228182840413095,0.0166139999999998,-0.0203270662102687));
#976=CARTESIAN_POINT('',(-0.00228182840413098,0.0166139999999998,-0.0183976599853105));
#977=CARTESIAN_POINT('',(-0.00228182840413089,0.0106999999999997,-0.0183976599853105));
#978=CARTESIAN_POINT('',(-0.00228182840413089,0.00269999999999973,-0.0183976599853105));
#979=CARTESIAN_POINT('',(-0.00228182840413087,0.00269999999999973,-0.0203270662102687));
#980=CARTESIAN_POINT('',(0.00311817159586914,0.0106999999999998,-0.0203270662102687));
#981=CARTESIAN_POINT('',(0.00311817159586913,0.0106999999999998,-0.0183976599853105));
#982=CARTESIAN_POINT('',(0.00311817159586912,0.0027,-0.0183976599853105));
#983=CARTESIAN_POINT('',(0.00311817159586904,0.0166139999999998,-0.0183976599853105));
#984=CARTESIAN_POINT('',(0.00311817159586905,0.016614,-0.0203270662102687));
#985=CARTESIAN_POINT('',(0.00311817159586914,0.00269999999999981,-0.0203270662102687));
#986=CARTESIAN_POINT('',(0.000418171595869118,0.0106999999999998,-0.0200776815444659));
#987=CARTESIAN_POINT('',(0.000418171595869034,0.0166139999999998,-0.0200776815444659));
#988=CARTESIAN_POINT('',(0.000418171595869118,0.00269999999999977,-0.0200776815444659));
#989=CARTESIAN_POINT('',(0.000418171595869034,0.0166139999999998,-0.0200776815444659));
#990=CARTESIAN_POINT('',(0.000418171595869034,0.0166139999999998,-0.0200776815444659));
#991=CARTESIAN_POINT('',(-0.000914301884407753,0.0166139999999997,-0.0200776815444659));
#992=CARTESIAN_POINT('',(0.000418171595868919,0.0246999999999997,-0.0200776815444659));
#993=CARTESIAN_POINT('',(0.000418171595869115,0.0027,-0.0200776815444659));
#994=CARTESIAN_POINT('',(0.000418171595869115,0.0027,-0.0187452080641891));
#995=CARTESIAN_POINT('',(-3.15891003341456E-19,0.0027,7.40288532697503E-6));
#996=CARTESIAN_POINT('',(-3.15891003341456E-19,0.0027,7.40288532697503E-6));
#997=CARTESIAN_POINT('',(-0.002025,0.0027,-0.00495593288532698));
#998=CARTESIAN_POINT('',(0.00286130918542925,0.0027,-0.00495593288532698));
#999=CARTESIAN_POINT('',(-0.00286130918542925,0.0027,-0.00495593288532698));
#1000=CARTESIAN_POINT('',(-0.00530446377814388,0.0027,-0.000724265));
#1001=CARTESIAN_POINT('',(0.00327946377814387,0.0027,-0.00423166788532698));
#1002=CARTESIAN_POINT('',(0.00429196377814388,0.03314853,-0.00247796644266349));
#1003=CARTESIAN_POINT('',(0.00286130918542925,0.03314853,-0.00495593288532698));
#1004=CARTESIAN_POINT('',(1.17758383634108E-18,0.03314853,-0.00495593288532698));
#1005=CARTESIAN_POINT('',(-0.00286130918542925,0.03314853,-0.00495593288532698));
#1006=CARTESIAN_POINT('',(-0.00429196377814388,0.03314853,-0.00247796644266348));
#1007=CARTESIAN_POINT('',(0.00429516932152111,0.00125147,-0.00247241427866825));
#1008=CARTESIAN_POINT('',(0.00286130918542925,0.00125147,-0.00495593288532698));
#1009=CARTESIAN_POINT('',(7.47073821412723E-19,0.00125147,-0.00495593288532698));
#1010=CARTESIAN_POINT('',(-0.00286130918542925,0.00125147,-0.00495593288532698));
#1011=CARTESIAN_POINT('',(-0.00429516932152111,0.00125147,-0.00247241427866825));
#1012=MECHANICAL_DESIGN_GEOMETRIC_PRESENTATION_REPRESENTATION('',(#615),
#1013);
#1013=(
GEOMETRIC_REPRESENTATION_CONTEXT(3)
GLOBAL_UNCERTAINTY_ASSIGNED_CONTEXT((#1014))
GLOBAL_UNIT_ASSIGNED_CONTEXT((#1017,#1016,#1015))
REPRESENTATION_CONTEXT('Part 1','TOP_LEVEL_ASSEMBLY_PART')
);
#1014=UNCERTAINTY_MEASURE_WITH_UNIT(LENGTH_MEASURE(1.E-8),#1017,
'DISTANCE_ACCURACY_VALUE','Maximum Tolerance applied to model');
#1015=(
NAMED_UNIT(*)
SI_UNIT($,.STERADIAN.)
SOLID_ANGLE_UNIT()
);
#1016=(
NAMED_UNIT(*)
PLANE_ANGLE_UNIT()
SI_UNIT($,.RADIAN.)
);
#1017=(
LENGTH_UNIT()
NAMED_UNIT(*)
SI_UNIT($,.METRE.)
);
#1018=PRODUCT_DEFINITION_SHAPE('','',#1019);
#1019=PRODUCT_DEFINITION('','',#1021,#1020);
#1020=PRODUCT_DEFINITION_CONTEXT('',#1027,'design');
#1021=PRODUCT_DEFINITION_FORMATION_WITH_SPECIFIED_SOURCE('','',#1023,
 .NOT_KNOWN.);
#1022=PRODUCT_RELATED_PRODUCT_CATEGORY('','',(#1023));
#1023=PRODUCT('Part 1','Part 1','Part 1',(#1025));
#1024=PRODUCT_CATEGORY('','');
#1025=PRODUCT_CONTEXT('',#1027,'mechanical');
#1026=APPLICATION_PROTOCOL_DEFINITION('international standard',
'ap242_managed_model_based_3d_engineering',2020,#1027);
#1027=APPLICATION_CONTEXT('managed model based 3d engineering');
ENDSEC;
END-ISO-10303-21;
