ISO-10303-21;
HEADER;
/* Generated by software containing ST-Developer
 * from STEP Tools, Inc. (www.steptools.com) 
 */
/* OPTION: using custom renumber hook */

FILE_DESCRIPTION(
/* description */ ('STEP AP242 Edition 2',
'CAx-IF Rec.Pracs.---Representation and Presentation of Product Manufa
cturing Information (PMI)---4.0---2014-10-13',
'CAx-IF Rec.Pracs.---3D Tessellated Geometry---0.4---2014-09-14','2;1',
'CAx-IF Rec.Pracs.---User Defined Attributes---1.5---2016-08-15'),
/* implementation_level */ '2;1');

FILE_NAME(
/* name */ 'Assembly 1 - Part 1 (1)',
/* time_stamp */ '2026-08-21T14:50:51Z',
/* author */ (''),
/* organization */ (''),
/* preprocessor_version */ 'ST-DEVELOPER v20',
/* originating_system */ 'ONSHAPE BY PTC INC, 1.219',
/* authorisation */ '  ');

FILE_SCHEMA (('AP242_MANAGED_MODEL_BASED_3D_ENGINEERING_MIM_LF { 1 0 10303 442 3 1 4 }'));
ENDSEC;

DATA;
#10=SHAPE_REPRESENTATION_RELATIONSHIP('','',#259,#11);
#11=ADVANCED_BREP_SHAPE_REPRESENTATION('',(#257),#443);
#12=LINE('',#417,#20);
#13=LINE('',#422,#21);
#14=LINE('',#426,#22);
#15=LINE('',#428,#23);
#16=LINE('',#430,#24);
#17=LINE('',#432,#25);
#18=LINE('',#436,#26);
#19=LINE('',#438,#27);
#20=VECTOR('',#350,1.);
#21=VECTOR('',#353,1.);
#22=VECTOR('',#358,1.);
#23=VECTOR('',#359,1.);
#24=VECTOR('',#360,1.);
#25=VECTOR('',#363,1.);
#26=VECTOR('',#368,1.);
#27=VECTOR('',#369,1.);
#28=TOROIDAL_SURFACE('',#274,0.045,0.005);
#29=TOROIDAL_SURFACE('',#275,0.045,0.005);
#30=PLANE('',#270);
#31=PLANE('',#272);
#32=PLANE('',#276);
#33=PLANE('',#286);
#34=PLANE('',#289);
#35=PLANE('',#292);
#36=PLANE('',#295);
#37=ORIENTED_EDGE('',*,*,#89,.F.);
#38=ORIENTED_EDGE('',*,*,#90,.T.);
#39=ORIENTED_EDGE('',*,*,#91,.T.);
#40=ORIENTED_EDGE('',*,*,#92,.T.);
#41=ORIENTED_EDGE('',*,*,#93,.T.);
#42=ORIENTED_EDGE('',*,*,#94,.T.);
#43=ORIENTED_EDGE('',*,*,#95,.T.);
#44=ORIENTED_EDGE('',*,*,#92,.F.);
#45=ORIENTED_EDGE('',*,*,#96,.T.);
#46=ORIENTED_EDGE('',*,*,#89,.T.);
#47=ORIENTED_EDGE('',*,*,#93,.F.);
#48=ORIENTED_EDGE('',*,*,#95,.F.);
#49=ORIENTED_EDGE('',*,*,#96,.F.);
#50=ORIENTED_EDGE('',*,*,#94,.F.);
#51=ORIENTED_EDGE('',*,*,#90,.F.);
#52=ORIENTED_EDGE('',*,*,#97,.T.);
#53=ORIENTED_EDGE('',*,*,#98,.T.);
#54=ORIENTED_EDGE('',*,*,#99,.T.);
#55=ORIENTED_EDGE('',*,*,#100,.T.);
#56=ORIENTED_EDGE('',*,*,#99,.F.);
#57=ORIENTED_EDGE('',*,*,#101,.T.);
#58=ORIENTED_EDGE('',*,*,#97,.F.);
#59=ORIENTED_EDGE('',*,*,#102,.T.);
#60=ORIENTED_EDGE('',*,*,#98,.F.);
#61=ORIENTED_EDGE('',*,*,#103,.F.);
#62=ORIENTED_EDGE('',*,*,#104,.F.);
#63=ORIENTED_EDGE('',*,*,#105,.T.);
#64=ORIENTED_EDGE('',*,*,#106,.F.);
#65=ORIENTED_EDGE('',*,*,#91,.F.);
#66=ORIENTED_EDGE('',*,*,#107,.T.);
#67=ORIENTED_EDGE('',*,*,#103,.T.);
#68=ORIENTED_EDGE('',*,*,#108,.F.);
#69=ORIENTED_EDGE('',*,*,#109,.T.);
#70=ORIENTED_EDGE('',*,*,#108,.T.);
#71=ORIENTED_EDGE('',*,*,#106,.T.);
#72=ORIENTED_EDGE('',*,*,#110,.F.);
#73=ORIENTED_EDGE('',*,*,#111,.T.);
#74=ORIENTED_EDGE('',*,*,#105,.F.);
#75=ORIENTED_EDGE('',*,*,#112,.F.);
#76=ORIENTED_EDGE('',*,*,#113,.F.);
#77=ORIENTED_EDGE('',*,*,#110,.T.);
#78=ORIENTED_EDGE('',*,*,#112,.T.);
#79=ORIENTED_EDGE('',*,*,#104,.T.);
#80=ORIENTED_EDGE('',*,*,#107,.F.);
#81=ORIENTED_EDGE('',*,*,#114,.T.);
#82=ORIENTED_EDGE('',*,*,#101,.F.);
#83=ORIENTED_EDGE('',*,*,#102,.F.);
#84=ORIENTED_EDGE('',*,*,#109,.F.);
#85=ORIENTED_EDGE('',*,*,#111,.F.);
#86=ORIENTED_EDGE('',*,*,#113,.T.);
#87=ORIENTED_EDGE('',*,*,#114,.F.);
#88=ORIENTED_EDGE('',*,*,#100,.F.);
#89=EDGE_CURVE('',#115,#115,#137,.T.);
#90=EDGE_CURVE('',#116,#116,#138,.T.);
#91=EDGE_CURVE('',#117,#117,#139,.F.);
#92=EDGE_CURVE('',#118,#118,#140,.T.);
#93=EDGE_CURVE('',#119,#119,#141,.F.);
#94=EDGE_CURVE('',#120,#120,#142,.T.);
#95=EDGE_CURVE('',#121,#121,#143,.T.);
#96=EDGE_CURVE('',#122,#122,#144,.F.);
#97=EDGE_CURVE('',#123,#123,#145,.T.);
#98=EDGE_CURVE('',#124,#124,#146,.T.);
#99=EDGE_CURVE('',#125,#125,#147,.T.);
#100=EDGE_CURVE('',#126,#126,#148,.T.);
#101=EDGE_CURVE('',#127,#127,#149,.T.);
#102=EDGE_CURVE('',#128,#128,#150,.T.);
#103=EDGE_CURVE('',#129,#130,#12,.T.);
#104=EDGE_CURVE('',#131,#129,#151,.T.);
#105=EDGE_CURVE('',#131,#132,#13,.T.);
#106=EDGE_CURVE('',#130,#132,#152,.T.);
#107=EDGE_CURVE('',#133,#129,#14,.T.);
#108=EDGE_CURVE('',#134,#130,#15,.T.);
#109=EDGE_CURVE('',#134,#133,#16,.T.);
#110=EDGE_CURVE('',#135,#132,#17,.T.);
#111=EDGE_CURVE('',#135,#134,#153,.T.);
#112=EDGE_CURVE('',#136,#131,#18,.T.);
#113=EDGE_CURVE('',#135,#136,#19,.T.);
#114=EDGE_CURVE('',#133,#136,#154,.T.);
#115=VERTEX_POINT('',#379);
#116=VERTEX_POINT('',#381);
#117=VERTEX_POINT('',#384);
#118=VERTEX_POINT('',#386);
#119=VERTEX_POINT('',#389);
#120=VERTEX_POINT('',#391);
#121=VERTEX_POINT('',#394);
#122=VERTEX_POINT('',#397);
#123=VERTEX_POINT('',#402);
#124=VERTEX_POINT('',#404);
#125=VERTEX_POINT('',#406);
#126=VERTEX_POINT('',#409);
#127=VERTEX_POINT('',#412);
#128=VERTEX_POINT('',#415);
#129=VERTEX_POINT('',#418);
#130=VERTEX_POINT('',#419);
#131=VERTEX_POINT('',#421);
#132=VERTEX_POINT('',#423);
#133=VERTEX_POINT('',#427);
#134=VERTEX_POINT('',#429);
#135=VERTEX_POINT('',#433);
#136=VERTEX_POINT('',#437);
#137=CIRCLE('',#262,0.0375);
#138=CIRCLE('',#263,0.0375);
#139=CIRCLE('',#265,0.0375);
#140=CIRCLE('',#266,0.0375);
#141=CIRCLE('',#268,0.05);
#142=CIRCLE('',#269,0.05);
#143=CIRCLE('',#271,0.045);
#144=CIRCLE('',#273,0.045);
#145=CIRCLE('',#277,0.0016);
#146=CIRCLE('',#278,0.0016);
#147=CIRCLE('',#279,0.00175);
#148=CIRCLE('',#281,0.00175);
#149=CIRCLE('',#283,0.0016);
#150=CIRCLE('',#285,0.0016);
#151=CIRCLE('',#287,0.005);
#152=CIRCLE('',#288,0.005);
#153=CIRCLE('',#291,0.005);
#154=CIRCLE('',#294,0.005);
#155=EDGE_LOOP('',(#37));
#156=EDGE_LOOP('',(#38));
#157=EDGE_LOOP('',(#39));
#158=EDGE_LOOP('',(#40));
#159=EDGE_LOOP('',(#41));
#160=EDGE_LOOP('',(#42));
#161=EDGE_LOOP('',(#43));
#162=EDGE_LOOP('',(#44));
#163=EDGE_LOOP('',(#45));
#164=EDGE_LOOP('',(#46));
#165=EDGE_LOOP('',(#47));
#166=EDGE_LOOP('',(#48));
#167=EDGE_LOOP('',(#49));
#168=EDGE_LOOP('',(#50));
#169=EDGE_LOOP('',(#51));
#170=EDGE_LOOP('',(#52));
#171=EDGE_LOOP('',(#53));
#172=EDGE_LOOP('',(#54));
#173=EDGE_LOOP('',(#55));
#174=EDGE_LOOP('',(#56));
#175=EDGE_LOOP('',(#57));
#176=EDGE_LOOP('',(#58));
#177=EDGE_LOOP('',(#59));
#178=EDGE_LOOP('',(#60));
#179=EDGE_LOOP('',(#61,#62,#63,#64));
#180=EDGE_LOOP('',(#65));
#181=EDGE_LOOP('',(#66,#67,#68,#69));
#182=EDGE_LOOP('',(#70,#71,#72,#73));
#183=EDGE_LOOP('',(#74,#75,#76,#77));
#184=EDGE_LOOP('',(#78,#79,#80,#81));
#185=EDGE_LOOP('',(#82));
#186=EDGE_LOOP('',(#83));
#187=EDGE_LOOP('',(#84,#85,#86,#87));
#188=EDGE_LOOP('',(#88));
#189=FACE_BOUND('',#155,.T.);
#190=FACE_BOUND('',#156,.T.);
#191=FACE_BOUND('',#157,.T.);
#192=FACE_BOUND('',#158,.T.);
#193=FACE_BOUND('',#159,.T.);
#194=FACE_BOUND('',#160,.T.);
#195=FACE_BOUND('',#161,.T.);
#196=FACE_BOUND('',#162,.T.);
#197=FACE_BOUND('',#163,.T.);
#198=FACE_BOUND('',#164,.T.);
#199=FACE_BOUND('',#165,.T.);
#200=FACE_BOUND('',#166,.T.);
#201=FACE_BOUND('',#167,.T.);
#202=FACE_BOUND('',#168,.T.);
#203=FACE_BOUND('',#169,.T.);
#204=FACE_BOUND('',#170,.T.);
#205=FACE_BOUND('',#171,.T.);
#206=FACE_BOUND('',#172,.T.);
#207=FACE_BOUND('',#173,.T.);
#208=FACE_BOUND('',#174,.T.);
#209=FACE_BOUND('',#175,.T.);
#210=FACE_BOUND('',#176,.T.);
#211=FACE_BOUND('',#177,.T.);
#212=FACE_BOUND('',#178,.T.);
#213=FACE_BOUND('',#179,.T.);
#214=FACE_BOUND('',#180,.T.);
#215=FACE_BOUND('',#181,.T.);
#216=FACE_BOUND('',#182,.T.);
#217=FACE_BOUND('',#183,.T.);
#218=FACE_BOUND('',#184,.T.);
#219=FACE_BOUND('',#185,.T.);
#220=FACE_BOUND('',#186,.T.);
#221=FACE_BOUND('',#187,.T.);
#222=FACE_BOUND('',#188,.T.);
#223=CYLINDRICAL_SURFACE('',#261,0.0375);
#224=CYLINDRICAL_SURFACE('',#264,0.0375);
#225=CYLINDRICAL_SURFACE('',#267,0.05);
#226=CYLINDRICAL_SURFACE('',#280,0.00175);
#227=CYLINDRICAL_SURFACE('',#282,0.0016);
#228=CYLINDRICAL_SURFACE('',#284,0.0016);
#229=CYLINDRICAL_SURFACE('',#290,0.005);
#230=CYLINDRICAL_SURFACE('',#293,0.005);
#231=ADVANCED_FACE('',(#189,#190),#223,.F.);
#232=ADVANCED_FACE('',(#191,#192),#224,.F.);
#233=ADVANCED_FACE('',(#193,#194),#225,.T.);
#234=ADVANCED_FACE('',(#195,#196),#30,.T.);
#235=ADVANCED_FACE('',(#197,#198),#31,.F.);
#236=ADVANCED_FACE('',(#199,#200),#28,.T.);
#237=ADVANCED_FACE('',(#201,#202),#29,.T.);
#238=ADVANCED_FACE('',(#203,#204,#205,#206),#32,.F.);
#239=ADVANCED_FACE('',(#207,#208),#226,.F.);
#240=ADVANCED_FACE('',(#209,#210),#227,.F.);
#241=ADVANCED_FACE('',(#211,#212),#228,.F.);
#242=ADVANCED_FACE('',(#213,#214),#33,.T.);
#243=ADVANCED_FACE('',(#215),#34,.T.);
#244=ADVANCED_FACE('',(#216),#229,.T.);
#245=ADVANCED_FACE('',(#217),#35,.F.);
#246=ADVANCED_FACE('',(#218),#230,.T.);
#247=ADVANCED_FACE('',(#219,#220,#221,#222),#36,.T.);
#248=CLOSED_SHELL('',(#231,#232,#233,#234,#235,#236,#237,#238,#239,#240,
#241,#242,#243,#244,#245,#246,#247));
#249=STYLED_ITEM('',(#250),#257);
#250=PRESENTATION_STYLE_ASSIGNMENT((#251));
#251=SURFACE_STYLE_USAGE(.BOTH.,#252);
#252=SURFACE_SIDE_STYLE('',(#253));
#253=SURFACE_STYLE_FILL_AREA(#254);
#254=FILL_AREA_STYLE('',(#255));
#255=FILL_AREA_STYLE_COLOUR('',#256);
#256=COLOUR_RGB('',0.247058823529412,0.243137254901961,0.243137254901961);
#257=MANIFOLD_SOLID_BREP('Part 1',#248);
#258=SHAPE_DEFINITION_REPRESENTATION(#448,#259);
#259=SHAPE_REPRESENTATION('Part 1',(#260),#443);
#260=AXIS2_PLACEMENT_3D('',#376,#296,#297);
#261=AXIS2_PLACEMENT_3D('',#377,#298,#299);
#262=AXIS2_PLACEMENT_3D('',#378,#300,#301);
#263=AXIS2_PLACEMENT_3D('',#380,#302,#303);
#264=AXIS2_PLACEMENT_3D('',#382,#304,#305);
#265=AXIS2_PLACEMENT_3D('',#383,#306,#307);
#266=AXIS2_PLACEMENT_3D('',#385,#308,#309);
#267=AXIS2_PLACEMENT_3D('',#387,#310,#311);
#268=AXIS2_PLACEMENT_3D('',#388,#312,#313);
#269=AXIS2_PLACEMENT_3D('',#390,#314,#315);
#270=AXIS2_PLACEMENT_3D('',#392,#316,#317);
#271=AXIS2_PLACEMENT_3D('',#393,#318,#319);
#272=AXIS2_PLACEMENT_3D('',#395,#320,#321);
#273=AXIS2_PLACEMENT_3D('',#396,#322,#323);
#274=AXIS2_PLACEMENT_3D('',#398,#324,#325);
#275=AXIS2_PLACEMENT_3D('',#399,#326,#327);
#276=AXIS2_PLACEMENT_3D('',#400,#328,#329);
#277=AXIS2_PLACEMENT_3D('',#401,#330,#331);
#278=AXIS2_PLACEMENT_3D('',#403,#332,#333);
#279=AXIS2_PLACEMENT_3D('',#405,#334,#335);
#280=AXIS2_PLACEMENT_3D('',#407,#336,#337);
#281=AXIS2_PLACEMENT_3D('',#408,#338,#339);
#282=AXIS2_PLACEMENT_3D('',#410,#340,#341);
#283=AXIS2_PLACEMENT_3D('',#411,#342,#343);
#284=AXIS2_PLACEMENT_3D('',#413,#344,#345);
#285=AXIS2_PLACEMENT_3D('',#414,#346,#347);
#286=AXIS2_PLACEMENT_3D('',#416,#348,#349);
#287=AXIS2_PLACEMENT_3D('',#420,#351,#352);
#288=AXIS2_PLACEMENT_3D('',#424,#354,#355);
#289=AXIS2_PLACEMENT_3D('',#425,#356,#357);
#290=AXIS2_PLACEMENT_3D('',#431,#361,#362);
#291=AXIS2_PLACEMENT_3D('',#434,#364,#365);
#292=AXIS2_PLACEMENT_3D('',#435,#366,#367);
#293=AXIS2_PLACEMENT_3D('',#439,#370,#371);
#294=AXIS2_PLACEMENT_3D('',#440,#372,#373);
#295=AXIS2_PLACEMENT_3D('',#441,#374,#375);
#296=DIRECTION('',(0.,0.,1.));
#297=DIRECTION('',(1.,0.,0.));
#298=DIRECTION('',(0.,0.,-1.));
#299=DIRECTION('',(-1.,0.,0.));
#300=DIRECTION('',(0.,0.,1.));
#301=DIRECTION('',(1.,0.,0.));
#302=DIRECTION('',(0.,0.,1.));
#303=DIRECTION('',(1.,0.,0.));
#304=DIRECTION('',(0.,0.,-1.));
#305=DIRECTION('',(-1.,0.,0.));
#306=DIRECTION('',(0.,0.,1.));
#307=DIRECTION('',(1.,0.,0.));
#308=DIRECTION('',(0.,0.,1.));
#309=DIRECTION('',(1.,0.,0.));
#310=DIRECTION('',(0.,0.,-1.));
#311=DIRECTION('',(-1.,0.,0.));
#312=DIRECTION('',(0.,0.,1.));
#313=DIRECTION('',(1.,0.,0.));
#314=DIRECTION('',(0.,0.,1.));
#315=DIRECTION('',(1.,0.,0.));
#316=DIRECTION('',(0.,0.,1.));
#317=DIRECTION('',(1.,0.,0.));
#318=DIRECTION('',(0.,0.,1.));
#319=DIRECTION('',(1.,0.,0.));
#320=DIRECTION('',(0.,0.,1.));
#321=DIRECTION('',(1.,0.,0.));
#322=DIRECTION('',(0.,0.,1.));
#323=DIRECTION('',(1.,0.,0.));
#324=DIRECTION('',(0.,0.,1.));
#325=DIRECTION('',(1.,0.,0.));
#326=DIRECTION('',(0.,0.,1.));
#327=DIRECTION('',(1.,0.,0.));
#328=DIRECTION('',(0.,0.,1.));
#329=DIRECTION('',(1.,0.,0.));
#330=DIRECTION('',(0.,0.,1.));
#331=DIRECTION('',(1.,0.,0.));
#332=DIRECTION('',(0.,0.,1.));
#333=DIRECTION('',(1.,0.,0.));
#334=DIRECTION('',(0.,0.,1.));
#335=DIRECTION('',(1.,0.,0.));
#336=DIRECTION('',(0.,0.,-1.));
#337=DIRECTION('',(-1.,0.,0.));
#338=DIRECTION('',(0.,0.,1.));
#339=DIRECTION('',(1.,0.,0.));
#340=DIRECTION('',(0.,0.,-1.));
#341=DIRECTION('',(-1.,0.,0.));
#342=DIRECTION('',(0.,0.,1.));
#343=DIRECTION('',(1.,0.,0.));
#344=DIRECTION('',(0.,0.,-1.));
#345=DIRECTION('',(-1.,0.,0.));
#346=DIRECTION('',(0.,0.,1.));
#347=DIRECTION('',(1.,0.,0.));
#348=DIRECTION('',(0.,0.,1.));
#349=DIRECTION('',(1.,0.,0.));
#350=DIRECTION('',(-0.823612782319611,-0.567152523400672,0.));
#351=DIRECTION('',(0.,0.,1.));
#352=DIRECTION('',(1.,0.,0.));
#353=DIRECTION('',(-0.82361278231961,-0.567152523400673,0.));
#354=DIRECTION('',(0.,0.,1.));
#355=DIRECTION('',(1.,0.,0.));
#356=DIRECTION('',(-0.567152523400672,0.82361278231961,0.));
#357=DIRECTION('',(-0.823612782319611,-0.567152523400672,0.));
#358=DIRECTION('',(0.,0.,-1.));
#359=DIRECTION('',(0.,0.,-1.));
#360=DIRECTION('',(0.82361278231961,0.567152523400672,0.));
#361=DIRECTION('',(0.,0.,-1.));
#362=DIRECTION('',(-1.,0.,0.));
#363=DIRECTION('',(0.,0.,-1.));
#364=DIRECTION('',(0.,0.,-1.));
#365=DIRECTION('',(1.,0.,0.));
#366=DIRECTION('',(-0.567152523400672,0.82361278231961,0.));
#367=DIRECTION('',(-0.82361278231961,-0.567152523400673,0.));
#368=DIRECTION('',(0.,0.,-1.));
#369=DIRECTION('',(0.82361278231961,0.567152523400673,0.));
#370=DIRECTION('',(0.,0.,-1.));
#371=DIRECTION('',(-1.,0.,0.));
#372=DIRECTION('',(0.,0.,-1.));
#373=DIRECTION('',(1.,0.,0.));
#374=DIRECTION('',(0.,0.,1.));
#375=DIRECTION('',(1.,0.,0.));
#376=CARTESIAN_POINT('',(0.,0.,0.));
#377=CARTESIAN_POINT('',(0.,2.29621274840128E-18,0.015));
#378=CARTESIAN_POINT('',(0.,2.29621274840128E-18,-0.015));
#379=CARTESIAN_POINT('',(0.0375,2.29621274840128E-18,-0.015));
#380=CARTESIAN_POINT('',(0.,2.29621274840128E-18,-0.01));
#381=CARTESIAN_POINT('',(0.0375,2.29621274840128E-18,-0.01));
#382=CARTESIAN_POINT('',(0.,2.29621274840128E-18,0.015));
#383=CARTESIAN_POINT('',(0.,2.29621274840128E-18,0.01));
#384=CARTESIAN_POINT('',(0.0375,2.29621274840128E-18,0.01));
#385=CARTESIAN_POINT('',(0.,2.29621274840128E-18,0.015));
#386=CARTESIAN_POINT('',(0.0375,2.29621274840128E-18,0.015));
#387=CARTESIAN_POINT('',(0.,3.06161699786838E-18,0.015));
#388=CARTESIAN_POINT('',(0.,3.06161699786838E-18,0.01));
#389=CARTESIAN_POINT('',(0.05,3.06161699786838E-18,0.01));
#390=CARTESIAN_POINT('',(0.,3.06161699786838E-18,-0.01));
#391=CARTESIAN_POINT('',(0.05,3.06161699786838E-18,-0.01));
#392=CARTESIAN_POINT('',(0.,0.,0.015));
#393=CARTESIAN_POINT('',(0.,3.06161699786838E-18,0.015));
#394=CARTESIAN_POINT('',(0.045,3.06161699786838E-18,0.015));
#395=CARTESIAN_POINT('',(0.,0.,-0.015));
#396=CARTESIAN_POINT('',(0.,3.06161699786838E-18,-0.015));
#397=CARTESIAN_POINT('',(0.045,3.06161699786838E-18,-0.015));
#398=CARTESIAN_POINT('',(0.,3.06161699786838E-18,0.01));
#399=CARTESIAN_POINT('',(0.,3.06161699786838E-18,-0.01));
#400=CARTESIAN_POINT('',(0.,0.,-0.01));
#401=CARTESIAN_POINT('',(0.0197667067756707,0.0136116605616161,-0.01));
#402=CARTESIAN_POINT('',(0.0213667067756707,0.0136116605616161,-0.01));
#403=CARTESIAN_POINT('',(0.0164722556463922,0.0113430504680134,-0.01));
#404=CARTESIAN_POINT('',(0.0180722556463922,0.0113430504680134,-0.01));
#405=CARTESIAN_POINT('',(0.,1.0842021724855E-19,-0.01));
#406=CARTESIAN_POINT('',(0.00175,1.0842021724855E-19,-0.01));
#407=CARTESIAN_POINT('',(0.,1.0842021724855E-19,0.008));
#408=CARTESIAN_POINT('',(0.,1.0842021724855E-19,0.015));
#409=CARTESIAN_POINT('',(0.00175,1.0842021724855E-19,0.015));
#410=CARTESIAN_POINT('',(0.0197667067756707,0.0136116605616161,0.008));
#411=CARTESIAN_POINT('',(0.0197667067756707,0.0136116605616161,0.015));
#412=CARTESIAN_POINT('',(0.0213667067756707,0.0136116605616161,0.015));
#413=CARTESIAN_POINT('',(0.0164722556463922,0.0113430504680134,0.008));
#414=CARTESIAN_POINT('',(0.0164722556463922,0.0113430504680134,0.015));
#415=CARTESIAN_POINT('',(0.0180722556463922,0.0113430504680134,0.015));
#416=CARTESIAN_POINT('',(0.,0.,0.01));
#417=CARTESIAN_POINT('',(-0.00283576261700336,0.00411806391159805,0.01));
#418=CARTESIAN_POINT('',(0.0169309441586673,0.0177297244732142,0.01));
#419=CARTESIAN_POINT('',(-0.00283576261700336,0.00411806391159805,0.01));
#420=CARTESIAN_POINT('',(0.0197667067756707,0.0136116605616161,0.01));
#421=CARTESIAN_POINT('',(0.022602469392674,0.00949359665001809,0.01));
#422=CARTESIAN_POINT('',(0.00283576261700336,-0.00411806391159805,0.01));
#423=CARTESIAN_POINT('',(0.00283576261700336,-0.00411806391159806,0.01));
#424=CARTESIAN_POINT('',(-2.16840434497101E-19,-4.33680868994202E-19,0.01));
#425=CARTESIAN_POINT('',(0.00540036520619275,0.00978958914560478,0.015));
#426=CARTESIAN_POINT('',(0.0169309441586673,0.0177297244732142,0.015));
#427=CARTESIAN_POINT('',(0.0169309441586673,0.0177297244732142,0.015));
#428=CARTESIAN_POINT('',(-0.00283576261700336,0.00411806391159805,0.015));
#429=CARTESIAN_POINT('',(-0.00283576261700336,0.00411806391159805,0.015));
#430=CARTESIAN_POINT('',(0.00540036520619275,0.00978958914560478,0.015));
#431=CARTESIAN_POINT('',(-2.16840434497101E-19,-4.33680868994202E-19,0.015));
#432=CARTESIAN_POINT('',(0.00283576261700336,-0.00411806391159805,0.015));
#433=CARTESIAN_POINT('',(0.00283576261700336,-0.00411806391159805,0.015));
#434=CARTESIAN_POINT('',(-2.16840434497101E-19,-4.33680868994202E-19,0.015));
#435=CARTESIAN_POINT('',(0.0110718904401995,0.00155346132240867,0.015));
#436=CARTESIAN_POINT('',(0.022602469392674,0.00949359665001809,0.015));
#437=CARTESIAN_POINT('',(0.022602469392674,0.00949359665001809,0.015));
#438=CARTESIAN_POINT('',(0.0110718904401995,0.00155346132240867,0.015));
#439=CARTESIAN_POINT('',(0.0197667067756707,0.0136116605616161,0.015));
#440=CARTESIAN_POINT('',(0.0197667067756707,0.0136116605616161,0.015));
#441=CARTESIAN_POINT('',(0.,0.,0.015));
#442=MECHANICAL_DESIGN_GEOMETRIC_PRESENTATION_REPRESENTATION('',(#249),
#443);
#443=(
GEOMETRIC_REPRESENTATION_CONTEXT(3)
GLOBAL_UNCERTAINTY_ASSIGNED_CONTEXT((#444))
GLOBAL_UNIT_ASSIGNED_CONTEXT((#447,#446,#445))
REPRESENTATION_CONTEXT('Part 1','TOP_LEVEL_ASSEMBLY_PART')
);
#444=UNCERTAINTY_MEASURE_WITH_UNIT(LENGTH_MEASURE(1.E-8),#447,
'DISTANCE_ACCURACY_VALUE','Maximum Tolerance applied to model');
#445=(
NAMED_UNIT(*)
SI_UNIT($,.STERADIAN.)
SOLID_ANGLE_UNIT()
);
#446=(
NAMED_UNIT(*)
PLANE_ANGLE_UNIT()
SI_UNIT($,.RADIAN.)
);
#447=(
LENGTH_UNIT()
NAMED_UNIT(*)
SI_UNIT($,.METRE.)
);
#448=PRODUCT_DEFINITION_SHAPE('','',#449);
#449=PRODUCT_DEFINITION('','',#451,#450);
#450=PRODUCT_DEFINITION_CONTEXT('',#457,'design');
#451=PRODUCT_DEFINITION_FORMATION_WITH_SPECIFIED_SOURCE('','',#453,
 .NOT_KNOWN.);
#452=PRODUCT_RELATED_PRODUCT_CATEGORY('','',(#453));
#453=PRODUCT('Part 1','Part 1','Part 1',(#455));
#454=PRODUCT_CATEGORY('','');
#455=PRODUCT_CONTEXT('',#457,'mechanical');
#456=APPLICATION_PROTOCOL_DEFINITION('international standard',
'ap242_managed_model_based_3d_engineering',2020,#457);
#457=APPLICATION_CONTEXT('managed model based 3d engineering');
ENDSEC;
END-ISO-10303-21;
